<svg xmlns="http://www.w3.org/2000/svg" width="150" height="50" viewBox="0,0,150,50"><path d="M7 46 C69 16,54 5,141 45" stroke="#555" fill="none"/><path d="M5 31 C89 6,64 43,145 31" stroke="#666" fill="none"/><path d="M19 11 C55 49,80 23,147 46" stroke="#333" fill="none"/><path fill="#333" d="M63.60 39.77L63.69 39.86L61.72 39.83L61.67 39.78Q60.72 39.78 59.76 39.89L59.90 40.03L59.87 40.00Q60.38 33.74 60.38 29.74L60.39 29.74L60.42 29.78Q56.53 23.18 48.88 14.50L48.70 14.32L48.87 14.50Q50.51 15.33 53.86 16.13L53.84 16.12L53.87 16.15Q58.92 21.73 61.93 26.94L61.97 26.99L62.02 27.04Q64.95 21.40 69.33 16.38L69.32 16.37L69.33 16.38Q71.69 15.92 74.20 15.12L74.27 15.19L74.40 15.32Q68.20 21.26 63.32 29.67L63.31 29.66L63.37 29.72Q63.43 36.82 63.73 39.90ZM72.72 17.22L75.56 14.50L75.39 14.33Q72.36 15.57 69.24 16.02L69.32 16.11L69.25 16.03Q65.14 20.87 62.32 25.97L62.33 25.97L62.18 25.83Q60.08 22.20 56.88 18.32L56.89 18.32L56.96 18.40Q56.63 18.34 56.14 18.26L56.21 18.33L56.09 18.21Q55.38 17.39 53.86 15.72L54.00 15.86L53.83 15.69Q50.57 15.05 47.60 13.49L47.65 13.54L47.60 13.49Q55.33 21.98 60.09 29.90L60.00 29.81L60.04 29.85Q60.02 36.27 59.42 40.42L59.42 40.42L59.34 40.35Q60.18 40.43 61.63 40.31L61.48 40.17L61.60 41.31L61.64 41.35Q61.56 41.72 61.48 42.26L61.56 42.34L61.56 42.34Q65.05 42.29 66.80 42.48L66.85 42.52L66.77 42.44Q65.51 37.76 65.39 31.78L65.30 31.69L65.30 31.69Q69.77 23.33 76.32 15.98L76.41 16.08L72.71 17.21Z"/><path d="M19 17 C95 32,95 38,136 39" stroke="#777" fill="none"/><path fill="#222" d="M46.19 21.46L46.32 21.59L46.25 21.52Q44.51 20.08 42.87 19.70L42.94 19.77L43.02 19.85Q41.82 19.49 39.04 19.45L39.04 19.45L39.12 19.54Q33.95 19.50 31.90 21.52L31.80 21.42L31.86 21.49Q30.24 23.06 30.35 26.75L30.34 26.74L30.39 26.79Q30.47 30.52 30.62 31.48L30.53 31.39L30.51 31.37Q31.68 37.56 39.41 37.56L39.44 37.59L39.41 37.56Q43.99 37.46 46.09 35.07L46.14 35.11L46.07 35.05Q48.04 32.95 48.27 28.19L48.31 28.22L48.25 28.16Q48.57 23.42 46.25 21.52ZM39.37 40.53L39.34 40.50L39.36 40.52Q32.70 40.52 29.73 38.16L29.81 38.24L29.86 38.29Q27.85 36.20 27.74 31.14L27.60 31.01L27.59 30.99Q27.70 30.61 27.55 27.34L27.42 27.20L27.41 27.19Q27.35 24.66 27.39 23.60L27.29 23.50L27.40 23.61Q27.56 20.76 28.97 19.05L28.99 19.07L28.83 18.91Q31.54 16.79 36.41 16.64L36.33 16.55L36.31 16.53Q38.10 16.50 38.98 16.53L38.86 16.42L38.97 16.52Q48.98 16.67 50.73 21.01L50.69 20.97L50.63 20.91Q51.50 23.00 51.34 25.74L51.38 25.78L51.41 25.81Q51.40 27.51 51.21 30.79L51.16 30.73L51.05 30.63Q50.99 33.58 50.08 35.63L49.95 35.50L50.10 35.65Q47.99 40.32 39.35 40.51ZM51.74 40.53L51.73 40.51L51.81 40.59Q53.16 38.78 53.27 35.70L53.25 35.68L53.26 35.68Q53.19 34.51 53.15 32.91L53.15 32.92L53.27 33.04Q53.11 32.15 53.07 30.33L53.06 30.31L53.09 30.34Q53.16 23.33 51.22 20.86L51.15 20.79L51.11 20.75Q50.80 19.83 49.70 18.73L49.67 18.70L49.66 18.69Q46.30 16.13 38.84 15.98L38.95 16.09L38.97 16.11Q31.55 15.96 28.51 18.55L28.53 18.58L28.52 18.56Q26.92 20.27 26.92 23.20L27.00 23.28L26.91 23.19Q27.10 24.68 27.25 26.01L27.14 25.90L27.15 25.91Q27.23 27.05 27.26 28.50L27.14 28.38L27.15 28.39Q27.34 32.38 27.49 33.56L27.59 33.66L27.47 33.54Q27.83 36.45 29.16 38.24L29.25 38.33L29.31 38.39Q29.66 39.57 30.72 40.34L30.68 40.29L30.67 40.28Q33.90 42.60 41.67 42.79L41.67 42.79L41.77 42.89Q48.98 42.98 51.64 40.43ZM48.04 28.22L48.04 28.23L48.05 28.23Q47.81 32.75 45.90 34.84L45.88 34.81L45.93 34.87Q43.73 37.01 39.28 37.05L39.43 37.20L39.36 37.13Q35.05 37.20 32.92 35.29L32.93 35.30L32.84 35.22Q32.15 33.61 32.22 30.72L32.21 30.70L32.25 30.74Q32.31 26.09 34.33 23.92L34.26 23.85L34.44 24.03Q36.40 21.80 41.01 21.80L41.02 21.82L40.93 21.72Q45.11 21.71 47.20 23.58L47.35 23.72L47.23 23.60Q48.09 25.38 47.97 28.16Z"/><path fill="#222" d="M81.70 19.61L81.63 19.54L80.23 19.82L80.08 19.67Q77.87 19.83 77.65 21.84L77.62 21.82L77.76 21.96Q77.65 22.65 77.69 23.64L77.57 23.51L77.61 23.56Q77.70 25.56 78.96 26.89L78.94 26.86L78.98 26.91Q80.28 28.28 82.18 28.13L82.17 28.12L82.17 28.12Q84.18 27.92 84.94 27.01L85.01 27.08L84.92 26.99Q86.08 26.16 86.34 23.92L86.31 23.88L86.21 23.78Q86.45 21.51 85.19 20.67L85.28 20.76L85.18 20.66Q84.43 19.98 81.76 19.68ZM87.67 28.78L87.70 28.81L86.57 31.26L86.42 31.11Q83.82 36.01 80.05 40.09L79.99 40.03L79.97 40.00Q78.44 40.26 75.73 41.06L75.62 40.95L75.65 40.98Q80.97 34.68 84.13 29.89L84.15 29.91L84.11 29.87Q83.14 30.57 81.50 30.64L81.50 30.65L81.39 30.54Q78.53 30.83 77.01 28.85L77.02 28.87L76.96 28.80Q75.70 27.17 74.60 22.61L74.64 22.65L74.60 22.61Q74.60 22.15 74.45 21.21L74.48 21.24L74.50 21.27Q74.29 20.28 74.29 19.82L74.37 19.90L74.29 19.82Q74.25 18.00 75.32 17.39L75.43 17.50L75.48 17.55Q76.66 16.75 78.53 16.75L78.47 16.69L78.43 16.65Q81.61 16.63 81.61 16.63L81.64 16.66L81.65 16.67Q83.78 16.67 85.04 16.86L85.08 16.90L85.09 16.91Q87.25 17.21 88.16 17.70L88.05 17.59L88.11 17.65Q89.56 18.49 89.75 20.24L89.80 20.29L89.65 20.14Q89.81 20.53 89.62 23.19L89.44 23.01L89.43 23.00Q89.20 25.29 88.98 26.13L88.92 26.08L88.84 25.99Q88.47 27.41 87.71 28.82ZM89.70 31.31L89.67 31.28L89.71 31.32Q90.60 29.01 91.13 24.71L91.23 24.81L91.11 24.68Q91.53 22.63 91.49 21.75L91.47 21.73L91.43 21.70Q91.36 19.80 90.18 18.89L90.17 18.87L89.90 18.79L89.92 18.81Q89.65 18.05 88.73 17.40L88.68 17.35L88.76 17.43Q86.50 16.46 81.70 16.31L81.66 16.26L81.59 16.20Q80.73 16.29 78.30 16.29L78.27 16.26L78.25 16.24Q76.59 16.33 75.10 17.01L75.02 16.94L75.00 16.91Q73.95 17.80 74.02 19.63L73.98 19.59L73.88 19.48Q74.14 20.47 74.33 22.49L74.25 22.40L74.29 22.44Q74.86 25.03 75.13 25.87L75.17 25.91L75.29 26.04Q75.87 27.91 76.82 29.20L76.72 29.10L76.82 29.21Q76.90 29.36 77.28 29.74L77.32 29.78L77.46 29.92Q77.58 30.23 78.23 31.15L78.22 31.14L78.25 31.17Q79.73 32.53 81.68 32.73L81.65 32.70L81.78 32.83Q79.89 35.51 78.33 37.41L78.23 37.31L74.71 41.79L74.64 41.72Q76.89 40.96 78.52 40.61L78.56 40.65L78.45 40.54Q77.69 41.41 76.13 43.13L76.24 43.24L76.28 43.28Q79.26 42.27 82.38 42.23L82.32 42.16L82.44 42.29Q84.68 39.61 89.02 32.38L89.12 32.48L89.05 32.48L89.07 32.51Q89.38 31.82 89.72 31.33ZM83.69 22.07L83.60 21.97L83.73 22.11Q84.27 21.92 84.73 22.04L84.77 22.07L84.80 22.11Q85.32 22.10 85.71 22.21L85.71 22.22L85.74 22.25Q85.78 22.56 85.86 22.98L85.89 23.01L85.92 23.04Q86.01 23.47 85.89 23.85L85.89 23.84L85.99 23.94Q85.96 25.67 84.78 26.77L84.78 26.77L84.62 26.61Q83.69 27.66 82.05 27.62L82.11 27.68L82.18 27.75Q81.60 27.58 80.07 27.28L80.10 27.31L80.10 27.30Q80.02 26.57 80.02 25.85L79.99 25.82L79.84 25.67Q79.87 25.52 79.87 25.29L79.92 25.33L79.79 25.21Q79.85 23.06 82.14 22.26L82.12 22.24L82.07 22.20Q82.89 22.10 83.73 22.10Z"/><path fill="#222" d="M21.47 39.92L21.49 39.94L19.35 39.75L19.42 39.82Q18.43 39.78 17.48 39.89L17.46 39.88L17.51 39.93Q18.10 33.74 18.10 29.74L18.14 29.78L18.06 29.71Q14.16 23.10 6.50 14.42L6.54 14.45L6.49 14.40Q8.30 15.41 11.65 16.21L11.69 16.25L11.73 16.29Q16.64 21.73 19.65 26.95L19.63 26.94L19.77 27.07Q22.65 21.38 27.02 16.36L27.16 16.50L27.00 16.34Q29.47 15.98 31.98 15.18L32.10 15.30L32.00 15.20Q25.88 21.23 21.01 29.64L20.99 29.62L21.17 29.80Q21.04 36.72 21.34 39.80ZM30.59 17.37L33.27 14.49L33.19 14.42Q30.02 15.51 26.89 15.96L26.98 16.05L26.97 16.04Q22.70 20.71 19.88 25.81L19.99 25.92L20.01 25.94Q17.76 22.17 14.56 18.29L14.64 18.36L14.59 18.31Q14.31 18.30 13.82 18.23L13.95 18.36L13.90 18.31Q13.20 17.49 11.68 15.82L11.64 15.78L11.73 15.87Q8.18 14.95 5.21 13.39L5.23 13.40L5.30 13.48Q12.96 21.90 17.72 29.82L17.74 29.84L17.87 29.97Q17.58 36.11 16.97 40.26L17.12 40.41L16.95 40.25Q17.79 40.32 19.24 40.21L19.23 40.20L19.20 41.19L19.28 41.28Q19.16 41.61 19.08 42.15L19.14 42.20L19.27 42.34Q22.74 42.26 24.49 42.45L24.55 42.51L24.42 42.38Q23.28 37.82 23.17 31.84L23.01 31.68L23.20 31.87Q27.51 23.36 34.06 16.01L34.08 16.03L30.39 17.17Z"/><path fill="#222" d="M100.17 40.39L100.07 40.29L100.16 40.38Q96.13 40.66 95.14 38.34L95.09 38.28L95.12 38.31Q95.91 37.39 97.47 35.60L97.49 35.62L97.34 35.47Q97.85 37.50 100.86 37.62L100.90 37.66L100.95 37.71Q104.28 37.72 105.91 36.39L105.92 36.40L105.88 36.36Q107.36 34.83 107.28 32.13L107.37 32.21L107.36 32.20Q107.04 26.97 102.24 27.20L102.26 27.22L102.24 27.20Q99.54 27.47 97.79 28.72L97.84 28.78L97.39 28.48L97.24 28.40L97.20 28.36Q97.60 25.26 97.49 22.52L97.55 22.58L97.46 22.50Q97.34 19.87 97.00 16.55L96.96 16.51L96.98 16.53Q100.64 17.49 104.44 17.37L104.52 17.44L104.53 17.45Q108.25 17.29 111.82 16.03L111.84 16.05L111.22 17.52L111.23 17.53Q110.90 18.27 110.71 19.11L110.78 19.18L110.71 19.11Q107.70 20.25 103.82 20.25L103.72 20.15L103.78 20.21Q102.24 20.12 100.76 19.96L100.82 20.03L100.74 19.95Q100.84 20.81 100.50 25.26L100.40 25.17L100.49 25.26Q101.31 24.78 103.36 24.63L103.30 24.57L103.39 24.65Q106.98 24.74 108.43 26.42L108.41 26.40L108.49 26.48Q109.79 27.93 110.06 31.78L110.15 31.87L110.16 31.88Q110.35 36.00 109.13 38.01L109.20 38.08L109.24 38.12Q107.21 40.01 103.90 40.24L103.86 40.20L103.78 40.12Q102.86 40.27 100.19 40.42ZM106.20 42.65L106.17 42.63L106.24 42.69Q109.69 42.80 111.60 41.69L111.50 41.60L111.45 41.55Q112.61 40.20 112.61 38.10L112.49 37.98L112.59 38.08Q112.45 34.86 111.50 30.74L111.51 30.75L111.49 30.74Q111.14 29.01 109.92 27.61L110.03 27.72L109.99 27.72L109.72 27.36L109.40 27.20L109.36 27.17Q109.08 26.46 108.43 25.77L108.40 25.74L108.40 25.78L108.57 25.95Q106.98 24.21 103.28 24.21L103.31 24.23L103.07 24.26L102.94 24.13Q103.16 23.70 103.35 22.60L103.22 22.47L103.28 22.52Q108.25 22.63 112.29 20.99L112.38 21.08L112.34 21.04Q112.63 19.50 113.58 16.69L113.57 16.68L111.60 17.76L111.60 17.75Q112.04 16.67 112.54 15.53L112.42 15.41L112.43 15.42Q108.52 16.80 104.41 16.88L104.44 16.91L104.48 16.95Q100.48 17.18 96.52 16.07L96.35 15.90L96.43 15.98Q97.21 20.49 97.21 24.90L97.17 24.87L97.10 24.80Q97.20 26.80 97.08 28.70L96.96 28.58L97.02 28.64Q97.35 28.90 97.92 29.20L97.91 29.19L97.78 29.06Q98.24 28.95 98.89 28.61L98.85 28.57L98.80 28.52Q98.76 29.27 98.53 30.80L98.53 30.80L98.61 30.87Q98.99 31.03 99.41 31.26L99.44 31.29L99.31 31.16Q102.17 29.49 104.03 29.49L103.97 29.42L104.05 29.50Q105.38 29.50 106.56 30.15L106.61 30.20L106.50 30.09Q106.84 31.12 106.88 32.07L106.93 32.12L106.88 32.07Q107.02 34.72 105.99 35.82L106.08 35.91L105.99 35.82Q104.63 37.05 102.38 37.28L102.33 37.23L102.29 37.19Q101.45 37.37 100.76 37.29L100.71 37.24L100.72 37.25Q99.92 37.18 99.16 36.83L99.10 36.77L99.02 36.50L98.99 36.71L99.01 36.72Q98.26 36.28 97.73 34.95L97.72 34.93L97.72 34.93Q96.24 36.20 94.57 38.33L94.67 38.43L94.64 38.40Q94.95 39.06 95.79 40.01L95.71 39.93L95.73 39.95Q96.91 41.90 99.73 42.39L99.73 42.39L99.64 42.30Q100.94 42.65 106.31 42.76Z"/><path fill="#444" d="M124.02 40.14L124.16 40.27L121.70 33.36L121.76 33.42Q117.25 20.68 111.31 14.29L111.43 14.41L111.43 14.41Q113.42 15.44 116.01 16.05L116.01 16.06L116.02 16.07Q121.01 22.20 125.35 34.95L125.37 34.97L125.47 35.07Q128.50 26.94 129.18 25.34L129.23 25.39L129.17 25.34Q131.58 19.75 134.40 16.44L134.39 16.43L134.42 16.46Q136.42 16.02 139.04 15.15L139.10 15.20L139.15 15.25Q134.60 19.88 131.56 27.11L131.40 26.96L131.38 26.94Q130.03 30.64 126.33 40.16L126.32 40.14L126.45 40.28Q125.87 40.26 125.30 40.23L125.24 40.18L125.22 40.15Q124.67 40.17 124.10 40.21ZM129.05 42.57L129.18 42.71L129.04 42.56Q131.84 32.57 133.40 28.54L133.46 28.59L133.39 28.52Q136.51 20.95 140.92 16.07L140.81 15.96L140.81 15.96Q139.84 16.39 137.74 17.12L137.68 17.05L138.83 15.73L138.82 15.72Q139.54 15.19 140.15 14.54L140.02 14.41L140.02 14.40Q137.31 15.51 134.30 16.08L134.21 15.98L134.32 16.10Q129.83 21.31 125.95 32.77L126.04 32.86L126.02 32.84Q122.27 22.63 119.08 18.25L119.11 18.28L119.04 18.21Q118.69 18.17 117.82 18.02L117.82 18.02L117.89 18.09Q117.67 17.71 116.07 15.66L116.04 15.63L116.09 15.68Q113.15 14.99 110.45 13.58L110.32 13.45L110.45 13.58Q117.08 20.67 121.46 33.46L121.43 33.43L121.29 33.29Q122.56 36.99 123.74 40.57L123.70 40.54L123.82 40.65Q124.25 40.78 125.08 40.66L125.08 40.66L124.95 40.53Q125.35 41.27 126.04 42.60L126.11 42.68L125.99 42.56Q126.79 42.44 127.51 42.52L127.57 42.58L127.51 42.52Q128.43 42.71 129.19 42.71Z"/></svg>